Coordinates
version=1
nRows=9
nColumns=24
inDegrees=yes

Units are S.I. units (second, meters, Newtons, ...)
Angles are in degrees.

endheader
time	torso_tilt	torso_list	torso_rotation	torso_tx	torso_ty	torso_tz	lumbar_extension	lumbar_bending	lumbar_rotation	hip_flexion_r	hip_adduction_r	hip_rotation_r	knee_angle_r	ankle_angle_r	subtalar_angle_r	mtp_angle_r	hip_flexion_l	hip_adduction_l	hip_rotation_l	knee_angle_l	ankle_angle_l	subtalar_angle_l	mtp_angle_l
      0.00000000	    -11.53532289	      0.70689564	     -0.88730798	      0.06506021	      1.24229973	      0.01996643	     12.87386450	     -4.91186493	     -2.06626639	    -12.50364225	      8.28602190	      0.80767479	     -9.33811574	     10.47126667	      1.80835259	      0.00000000	     23.30267638	     -4.66141266	     -2.07421300	     -9.39515687	      1.93219464	     -2.84261611	      0.00000000
      0.01000000	    -11.52109849	      0.80487006	     -0.84433555	      0.06522896	      1.24074392	      0.01914860	     12.61893546	     -5.19032220	     -2.06321717	    -12.80489484	      8.34783370	      0.79354188	     -9.61028585	     10.66510714	      1.90429996	      0.00000000	     23.05401887	     -4.70715744	     -1.88350008	     -7.26154299	      2.61538173	     -2.77928636	      0.00000000
      0.02000000	    -11.48952963	      0.89834670	     -0.83953891	      0.06546375	      1.23936150	      0.01830741	     12.48329743	     -5.37980550	     -2.04488521	    -13.21832526	      8.30627397	      0.72331074	     -9.98606207	     10.76164620	      2.23055740	      0.00000000	     22.73606587	     -4.64159939	     -1.86599662	     -5.76352977	      3.20211608	     -2.00678032	      0.00000000
      0.03000000	    -11.44475942	      0.98096883	     -0.83889811	      0.06576129	      1.23781301	      0.01743110	     12.43141350	     -5.53872305	     -2.07253111	    -13.70535565	      8.24268340	      0.74113747	    -10.47444315	     10.83803261	      2.35140865	      0.00000000	     22.35353028	     -4.56523344	     -2.27515428	     -4.85731342	      3.74630036	     -0.67503743	      0.00000000
      0.04000000	    -11.38182671	      1.06288515	     -0.83180047	      0.06608035	      1.23616681	      0.01656389	     12.39063965	     -5.66426688	     -2.08443694	    -14.18465807	      8.14333208	      0.76654899	    -11.03442896	     10.91421090	      2.45003456	      0.00000000	     22.09059136	     -4.43553135	     -2.74118793	     -4.80869547	      4.51999428	      0.00819335	      0.00000000
      0.05000000	    -11.29566316	      1.13317050	     -0.84946041	      0.06653941	      1.23489767	      0.01567270	     12.26851960	     -5.61160155	     -2.07313994	    -14.51761541	      7.85558487	      0.63293997	    -11.73894932	     10.90464823	      2.58944392	      0.00000000	     21.97384189	     -4.14731138	     -2.90886933	     -5.43919462	      3.96650444	      0.26752872	      0.00000000
      0.06000000	    -11.18406457	      1.21485880	     -0.86953428	      0.06703346	      1.23355487	      0.01467841	     12.19025819	     -5.53128783	     -2.08962915	    -14.85356815	      7.48961672	      0.38385221	    -12.61615606	     10.97201844	      2.95760945	      0.00000000	     21.81270227	     -3.81046133	     -2.89732579	     -6.43046841	      3.04601581	      0.22032367	      0.00000000
      0.07000000	    -11.04925270	      1.27486493	     -0.90297250	      0.06769657	      1.23231197	      0.01370284	     12.09267107	     -5.34732688	     -2.03728801	    -15.14921936	      7.04765542	      0.03455580	    -13.56386153	     10.86681169	      3.17263404	      0.00000000	     21.62448292	     -3.34415793	     -2.88710549	     -7.36696725	      2.55563364	      0.42309539	      0.00000000
      0.08000000	    -10.90821705	      1.35374706	     -0.92265848	      0.06838345	      1.23120910	      0.01267315	     12.03707838	     -5.09330948	     -1.99050754	    -15.38490318	      6.46236108	     -0.47202117	    -14.72552723	     10.81308934	      3.75145293	      0.00000000	     21.32001518	     -2.74402454	     -2.76008498	     -8.16528192	      1.82039946	     -0.07839435	      0.00000000
